# xmcd CD database file
#
# Track frame offsets:
#	150
#	12367
#	26045
#	38062
#	50060
#	60335
#	74657
#	85812
#	99552
#	110427
#	126027
#	136175
#	145652
#	155380
#	169217
#	179422
#	192852
#
# Disc length: 2710 seconds
#
# Revision: 0
# Processed by: cddbd v1.5.1PL2 Copyright (c) Steve Scherf et al.
# Submitted via: CDex 1.51
#
DISCID=e80a9411
DTITLE=Marilyn Middleton Pollock - Those women of the vaudeville blues
DYEAR=1900
DGENRE=Blues
TTITLE0=Miss Jenny's Ball
TTITLE1=Aggravatin' Papa
TTITLE2=Handy Man
TTITLE3=Barrelhouse Blues
TTITLE4=It's Tight Like That
TTITLE5=Moanin' The Blues
TTITLE6=Mighty Tight Woman
TTITLE7=Trouble In Mind
TTITLE8=Hot Time In the Old Town
TTITLE9=Last Journey Blues
TTITLE10=Wild Women Don't Get The Blues
TTITLE11=Dark Man
TTITLE12=I Got A Mind to Ramble
TTITLE13=St. Louis Blues
TTITLE14=Women Don't Need No Mens
TTITLE15=Nobody Knows You
TTITLE16=Some Of These Days
EXTD=
EXTT0=
EXTT1=
EXTT2=
EXTT3=
EXTT4=
EXTT5=
EXTT6=
EXTT7=
EXTT8=
EXTT9=
EXTT10=
EXTT11=
EXTT12=
EXTT13=
EXTT14=
EXTT15=
EXTT16=
PLAYORDER=
